<?xml version="1.0" encoding="UTF-8"?>
<svg xmlns="http://www.w3.org/2000/svg" xmlns:xlink="http://www.w3.org/1999/xlink" version="1.1" width="623px"
  height="310px"
  style="shape-rendering:geometricPrecision; text-rendering:geometricPrecision; image-rendering:optimizeQuality; fill-rule:evenodd; clip-rule:evenodd">
  <g>
    <path style="opacity:0.939" fill="#df1422"
      d="M 288.5,1.5 C 297.192,1.16863 305.859,1.50196 314.5,2.5C 318.872,6.34967 323.705,9.68301 329,12.5C 332.758,13.6667 336.258,15.1667 339.5,17C 345.902,18.2082 351.902,17.2082 357.5,14C 374.684,9.73436 389.017,13.901 400.5,26.5C 408.833,30.5942 416.5,35.5942 423.5,41.5C 428.069,45.3695 430.735,50.3695 431.5,56.5C 433.733,61.4128 436.233,66.0795 439,70.5C 444.064,74.7978 449.231,78.9644 454.5,83C 455.448,83.4828 456.448,83.6495 457.5,83.5C 458.345,87.3528 460.679,90.0195 464.5,91.5C 465.864,96.1901 467.364,100.857 469,105.5C 470.758,106.469 471.258,107.636 470.5,109C 472.552,112.294 474.385,115.794 476,119.5C 476.987,122.697 476.487,125.53 474.5,128C 475.022,128.561 475.355,129.228 475.5,130C 474.2,134.568 472.534,138.901 470.5,143C 470.957,143.414 471.291,143.914 471.5,144.5C 469.358,150.127 467.192,155.794 465,161.5C 462.667,163.5 460.333,165.5 458,167.5C 454.786,174.976 451.286,182.31 447.5,189.5C 446.193,190.816 444.693,191.816 443,192.5C 439.704,197.593 436.537,202.759 433.5,208C 429.277,209.944 424.944,211.611 420.5,213C 420.833,213.333 421.167,213.667 421.5,214C 419.911,217.478 418.245,220.978 416.5,224.5C 413.623,229.544 409.623,233.378 404.5,236C 397.881,237.221 391.714,236.055 386,232.5C 382.189,234.246 378.189,235.246 374,235.5C 369.444,235.597 364.777,235.264 360,234.5C 351.167,235.97 342.334,237.47 333.5,239C 331.464,239.454 329.63,240.287 328,241.5C 327.228,241.355 326.561,241.022 326,240.5C 323.276,241.776 320.276,242.442 317,242.5C 310.834,243.451 306.334,241.285 303.5,236C 300.167,235.667 296.833,235.333 293.5,235C 292.833,234 292.167,233 291.5,232C 284.884,229.699 279.05,226.199 274,221.5C 271.011,208.324 276.178,203.324 289.5,206.5C 294.254,206.534 298.754,207.201 303,208.5C 303.333,208.167 303.667,207.833 304,207.5C 304.5,208.667 305.333,209.5 306.5,210C 312.713,209.935 318.713,210.768 324.5,212.5C 328.911,211.239 333.244,209.739 337.5,208C 344.135,207.028 350.801,206.361 357.5,206C 361.824,203.838 366.491,201.504 371.5,199C 376.956,196.822 382.623,195.155 388.5,194C 393.873,189.629 398.873,184.796 403.5,179.5C 411.774,177.947 418.608,173.947 424,167.5C 424.422,165.645 424.922,163.811 425.5,162C 433.386,153.724 439.053,144.057 442.5,133C 442.167,132.167 441.833,131.333 441.5,130.5C 434.746,125.545 428.746,119.711 423.5,113C 420.388,111.397 417.388,109.563 414.5,107.5C 409.168,100.675 402.501,95.5082 394.5,92C 387.108,84.065 378.441,77.7317 368.5,73C 362.598,72.8879 357.098,71.3879 352,68.5C 345.609,63.5283 338.776,59.195 331.5,55.5C 317.167,54.1667 302.833,54.1667 288.5,55.5C 282.792,57.1439 277.125,58.9772 271.5,61C 265.833,61.6667 260.167,61.6667 254.5,61C 246.469,58.8947 238.469,56.728 230.5,54.5C 227.638,54.7704 224.972,55.6038 222.5,57C 216.693,60.5351 211.193,64.3685 206,68.5C 198.045,71.1214 189.878,72.6214 181.5,73C 179.264,75.2672 176.597,76.9338 173.5,78C 174.833,78.6667 174.833,79.3333 173.5,80C 166.962,85.4712 160.295,90.8045 153.5,96C 142.444,107.386 131.777,119.053 121.5,131C 117.886,133.752 113.886,135.919 109.5,137.5C 108.558,137.392 107.725,137.059 107,136.5C 101.237,140.299 95.0702,143.466 88.5,146C 83.9184,150.54 80.2517,155.707 77.5,161.5C 75.1664,163.504 73.1664,165.837 71.5,168.5C 62.449,172.925 53.449,177.425 44.5,182C 41.657,184.511 39.157,187.344 37,190.5C 36.2127,194.179 35.3793,197.846 34.5,201.5C 30.1013,206.635 24.9346,210.968 19,214.5C 17.1246,215.209 14.9579,215.209 12.5,214.5C 8.50113,205.924 10.3345,198.924 18,193.5C 18.5049,185.939 21.0049,179.772 25.5,175C 25.1667,174.667 24.8333,174.333 24.5,174C 26.4288,169.608 28.2622,165.108 30,160.5C 33.0647,159.047 35.7314,157.047 38,154.5C 40.5,147.333 45.3333,142.5 52.5,140C 53.3333,137.833 54.8333,136.333 57,135.5C 62.2703,127.276 67.7703,119.276 73.5,111.5C 83.1507,102.928 91.984,93.5947 100,83.5C 104.163,80.1703 107.996,76.5036 111.5,72.5C 116.594,69.6595 121.594,66.6595 126.5,63.5C 127.238,61.0598 128.571,59.0598 130.5,57.5C 138.444,51.8172 146.778,46.6505 155.5,42C 156.449,41.3828 157.282,41.5494 158,42.5C 161.422,40.68 164.922,38.8466 168.5,37C 174.248,31.4955 179.914,26.1621 185.5,21C 193.463,19.9676 201.463,19.1343 209.5,18.5C 213.662,18.0296 217.496,16.6962 221,14.5C 221.772,14.6448 222.439,14.9781 223,15.5C 228.444,11.5396 234.611,9.37294 241.5,9C 242.912,7.69362 244.579,6.86029 246.5,6.5C 256.155,5.73382 265.822,5.06716 275.5,4.5C 280.061,3.90431 284.394,2.90431 288.5,1.5 Z">
    </path>
  </g>
  <g>
    <path style="opacity:0.93" fill="#3b4bc0"
      d="M 227.5,68.5 C 232.079,68.1532 236.412,68.8198 240.5,70.5C 240.965,74.9111 243.465,76.5777 248,75.5C 252.321,75.5865 256.321,74.5865 260,72.5C 260.772,72.6448 261.439,72.9781 262,73.5C 265.132,72.0471 268.299,70.5471 271.5,69C 287.497,68.5001 303.497,68.3334 319.5,68.5C 319.729,70.433 320.562,72.0997 322,73.5C 323.987,74.218 325.821,75.218 327.5,76.5C 335.776,77.985 344.109,78.985 352.5,79.5C 354.304,83.2625 354.804,87.2625 354,91.5C 352.151,92.5608 350.151,93.2275 348,93.5C 325.233,92.6087 302.399,92.442 279.5,93C 259.626,96.3542 242.459,104.854 228,118.5C 226.189,119.078 224.355,119.578 222.5,120C 208.161,133.432 195.494,148.099 184.5,164C 183.197,168.18 183.197,172.347 184.5,176.5C 190.44,180.404 196.107,184.57 201.5,189C 201.167,189.333 200.833,189.667 200.5,190C 201.5,190.333 202.5,190.667 203.5,191C 205.464,194.874 208.131,198.207 211.5,201C 215.952,203.944 220.285,207.111 224.5,210.5C 231.902,219.404 241.069,225.738 252,229.5C 254.883,231.682 257.883,233.682 261,235.5C 261.725,234.941 262.558,234.608 263.5,234.5C 272.062,238.272 280.895,241.272 290,243.5C 298.074,245.693 306.24,247.36 314.5,248.5C 320.713,247.896 326.713,246.396 332.5,244C 346.61,242.185 360.777,241.018 375,240.5C 383.369,241.203 391.702,242.203 400,243.5C 409.452,241.881 418.952,240.548 428.5,239.5C 432.894,238.362 437.061,236.695 441,234.5C 441.772,234.645 442.439,234.978 443,235.5C 445.251,233.636 447.918,232.636 451,232.5C 454.612,230.863 457.946,228.863 461,226.5C 470.195,224.688 475.028,219.188 475.5,210C 478.76,207.195 482.594,205.695 487,205.5C 489.047,203.644 491.38,202.311 494,201.5C 496.546,197.202 498.713,192.702 500.5,188C 501.687,185.276 502.353,182.443 502.5,179.5C 506.735,177.777 511.068,176.277 515.5,175C 521.034,170.42 527.368,167.754 534.5,167C 537.488,165.01 540.155,162.677 542.5,160C 544.473,159.505 546.473,159.338 548.5,159.5C 550.29,154.567 551.956,149.567 553.5,144.5C 561.372,142.065 568.205,138.065 574,132.5C 574.821,123.742 579.655,119.909 588.5,121C 590.483,119.886 592.15,118.386 593.5,116.5C 594.36,107.396 598.027,99.7296 604.5,93.5C 605.246,92.2638 605.579,90.9305 605.5,89.5C 610.403,88.3058 613.403,90.1392 614.5,95C 612.434,100.067 610.267,104.567 608,108.5C 605.71,117.096 603.876,125.762 602.5,134.5C 596.675,139.834 591.175,145.5 586,151.5C 583.497,157.478 580.331,163.144 576.5,168.5C 571.961,171.874 568.294,176.041 565.5,181C 562.987,182.039 560.653,183.372 558.5,185C 551.011,193.49 543.177,201.656 535,209.5C 534.517,210.448 534.351,211.448 534.5,212.5C 533.448,212.351 532.448,212.517 531.5,213C 521.455,223.86 510.789,233.86 499.5,243C 495.455,245.211 491.122,246.544 486.5,247C 477.988,253.012 469.655,259.345 461.5,266C 458.044,268.121 454.377,269.788 450.5,271C 448.333,272.833 446.167,274.667 444,276.5C 439.872,277.024 436.038,278.357 432.5,280.5C 425.796,282.372 419.462,281.705 413.5,278.5C 409.739,280.11 406.406,282.277 403.5,285C 398.11,287.645 392.443,289.478 386.5,290.5C 376.902,297.126 366.235,300.626 354.5,301C 348.801,305.129 342.468,306.462 335.5,305C 333.306,302.825 330.639,301.492 327.5,301C 314.764,303.439 304.431,299.772 296.5,290C 292.676,288.184 288.843,286.351 285,284.5C 281.427,284.752 278.594,286.252 276.5,289C 270.167,289.667 263.833,289.667 257.5,289C 251.505,286.084 245.172,284.25 238.5,283.5C 233.213,280.532 227.546,278.032 221.5,276C 218.029,272.179 214.696,268.346 211.5,264.5C 208.796,263.428 206.13,262.428 203.5,261.5C 203.335,258.482 203.502,255.482 204,252.5C 206.147,251.887 208.314,251.221 210.5,250.5C 210.833,249.833 211.167,249.167 211.5,248.5C 209.291,247.937 207.791,246.604 207,244.5C 206.586,244.957 206.086,245.291 205.5,245.5C 204.099,243.723 202.599,242.056 201,240.5C 200.586,240.957 200.086,241.291 199.5,241.5C 197.999,240.248 196.332,239.248 194.5,238.5C 184.952,230.967 175.619,222.967 166.5,214.5C 164.087,210.122 161.754,205.288 159.5,200C 160.778,197.718 162.445,195.718 164.5,194C 165.589,191.241 165.589,188.575 164.5,186C 161.736,183.767 158.903,181.601 156,179.5C 155.833,178.5 155.667,177.5 155.5,176.5C 158.644,170.315 161.644,164.149 164.5,158C 164.043,157.586 163.709,157.086 163.5,156.5C 165.071,154.118 165.904,151.451 166,148.5C 169.84,142.951 173.84,137.618 178,132.5C 181.193,119.123 188.193,108.123 199,99.5C 199.333,99.8333 199.667,100.167 200,100.5C 200.374,99.5838 200.874,98.7504 201.5,98C 206.211,95.5362 210.711,92.7029 215,89.5C 215.11,87.1517 216.277,85.6517 218.5,85C 217.185,81.3174 217.685,77.8174 220,74.5C 222.558,72.3384 225.058,70.3384 227.5,68.5 Z">
    </path>
  </g>
  <g>
    <path style="opacity:1" fill="#3b4bc0"
      d="M 364.5,95.5 C 370.785,95.9122 373.285,99.2455 372,105.5C 371.5,106.667 370.667,107.5 369.5,108C 366.183,108.498 362.85,108.665 359.5,108.5C 359.5,104.833 359.5,101.167 359.5,97.5C 361.698,97.8799 363.365,97.2132 364.5,95.5 Z">
    </path>
  </g>
  <g>
    <path style="opacity:1" fill="#3b4bc0"
      d="M 382.5,110.5 C 390.638,111.043 393.638,115.21 391.5,123C 387.245,124.497 382.912,124.497 378.5,123C 377.549,119.943 377.216,116.777 377.5,113.5C 380.034,113.741 381.7,112.741 382.5,110.5 Z">
    </path>
  </g>
  <g>
    <path style="opacity:1" fill="#3b4bc0"
      d="M 396.5,121.5 C 399.761,122.617 403.094,123.617 406.5,124.5C 408.797,129.42 408.964,134.42 407,139.5C 403.77,141.691 400.27,142.024 396.5,140.5C 395.276,137.869 394.609,135.035 394.5,132C 394.781,128.371 395.447,124.871 396.5,121.5 Z">
    </path>
  </g>
  <g>
    <path style="opacity:0.914" fill="#3b4bc0"
      d="M 312.5,131.5 C 325.015,131.296 333.515,136.629 338,147.5C 338.775,154.038 338.609,160.538 337.5,167C 334.644,169.86 332.144,173.026 330,176.5C 327.927,178.165 325.76,179.665 323.5,181C 317.115,181.793 310.782,181.626 304.5,180.5C 302.421,179.088 300.421,177.588 298.5,176C 298.833,175.667 299.167,175.333 299.5,175C 297.457,171.747 295.29,168.58 293,165.5C 292.225,158.962 292.391,152.462 293.5,146C 296.185,143.31 298.518,140.31 300.5,137C 304.049,134.099 308.049,132.265 312.5,131.5 Z">
    </path>
  </g>
  <g>
    <path style="opacity:1" fill="#df1422"
      d="M 218.5,159.5 C 228.817,156.659 233.484,160.492 232.5,171C 234.417,179.75 231.083,183.084 222.5,181C 220.24,179.665 218.073,178.165 216,176.5C 215.333,172.167 215.333,167.833 216,163.5C 216.48,161.867 217.313,160.534 218.5,159.5 Z">
    </path>
  </g>
  <g>
    <path style="opacity:1" fill="#df1422"
      d="M 238.5,175.5 C 242.911,174.66 246.577,175.827 249.5,179C 250.448,179.483 251.448,179.649 252.5,179.5C 253.463,183.796 253.629,188.129 253,192.5C 252.25,193.126 251.416,193.626 250.5,194C 250.833,194.333 251.167,194.667 251.5,195C 246.95,201.02 241.617,201.853 235.5,197.5C 234.519,192.871 234.352,188.204 235,183.5C 235.468,180.404 236.634,177.737 238.5,175.5 Z">
    </path>
  </g>
  <g>
    <path style="opacity:1" fill="#df1422"
      d="M 258.5,194.5 C 263.731,194.094 266.731,196.427 267.5,201.5C 266.286,209.015 261.953,212.015 254.5,210.5C 253.703,208.868 252.703,207.368 251.5,206C 252.987,201.504 255.32,197.67 258.5,194.5 Z">
    </path>
  </g>
  <g>
    <path style="opacity:1" fill="#3b4bc0"
      d="M 409.5,286.5 C 413.842,286.739 418.176,287.073 422.5,287.5C 424.458,293.492 423.458,298.825 419.5,303.5C 414.198,306.273 409.364,305.606 405,301.5C 403.988,295.706 405.488,290.706 409.5,286.5 Z">
    </path>
  </g>
</svg>